<svg width="20" height="20" viewBox="0 0 20 20" fill="none" xmlns="http://www.w3.org/2000/svg">
<path d="M10.6641 20L10.8008 18.2422C11.5951 17.9557 12.4154 17.7344 13.2617 17.5781L12.9883 18.0859L8.04688 10.8984L12.4805 9.57031L18.75 18.418L17.168 17.6953L19.7461 18.2422L19.6094 20H10.6641ZM0.3125 20L0.449219 18.2812C1.16536 17.9297 1.93359 17.6888 2.75391 17.5586L1.21094 18.3008L8.16406 9.74609L11.5039 9.84375L4.88281 18.3008L4.76562 17.6953L7.32422 18.2422L7.1875 20H0.3125ZM7.77344 11.0156L1.50391 2.24609L3.08594 2.96875L0.507812 2.42188L0.644531 0.664062H9.55078L9.41406 2.42188C8.67188 2.70833 7.86458 2.92969 6.99219 3.08594L7.26562 2.57812L12.2266 9.6875L7.77344 11.0156ZM11.6211 10.8398L8.28125 10.7422L14.9023 2.36328L15.0195 2.96875L12.5 2.42188L12.6367 0.664062H19.4727L19.3359 2.38281C18.6198 2.73438 17.8516 2.97526 17.0312 3.10547L18.5742 2.36328L11.6211 10.8398Z" fill="#00A181"/>
</svg>
