<svg width="32" height="32" viewBox="0 0 32 32" fill="none" xmlns="http://www.w3.org/2000/svg">
<path d="M15.3333 29.0001C7.8 29.0001 1.66667 22.8667 1.66667 15.3334C1.66667 7.80008 7.8 1.66675 15.3333 1.66675C22.8667 1.66675 29 7.80008 29 15.3334C29 22.8667 22.8667 29.0001 15.3333 29.0001ZM15.3333 3.66675C8.89333 3.66675 3.66667 8.90675 3.66667 15.3334C3.66667 21.7601 8.89333 27.0001 15.3333 27.0001C21.7733 27.0001 27 21.7601 27 15.3334C27 8.90675 21.7733 3.66675 15.3333 3.66675Z" fill="#3A3A3A"/>
<path d="M29.3333 30.3333C29.08 30.3333 28.8267 30.2399 28.6267 30.0399L25.96 27.3733C25.5733 26.9866 25.5733 26.3466 25.96 25.9599C26.3467 25.5733 26.9867 25.5733 27.3733 25.9599L30.04 28.6266C30.4267 29.0133 30.4267 29.6533 30.04 30.0399C29.84 30.2399 29.5867 30.3333 29.3333 30.3333Z" fill="#3A3A3A"/>
</svg>
