<svg width="32" height="32" viewBox="0 0 32 32" fill="none" xmlns="http://www.w3.org/2000/svg">
<path d="M24.2533 23.6667H10.0533C8.73333 23.6667 7.46666 23.1068 6.57333 22.1334C5.68 21.1601 5.22667 19.8534 5.33334 18.5334L6.44001 5.25342C6.48001 4.84008 6.33333 4.44009 6.05333 4.13342C5.77333 3.82676 5.38667 3.66675 4.97333 3.66675H2.66667C2.12001 3.66675 1.66667 3.21341 1.66667 2.66675C1.66667 2.12008 2.12001 1.66675 2.66667 1.66675H4.98668C5.96001 1.66675 6.88 2.08008 7.53333 2.78674C7.89333 3.18674 8.16 3.65342 8.30667 4.17342H24.96C26.3067 4.17342 27.5467 4.70675 28.4533 5.66675C29.3467 6.64008 29.8 7.90675 29.6933 9.25342L28.9733 19.2534C28.8267 21.6934 26.6933 23.6667 24.2533 23.6667ZM8.37334 6.16008L7.33334 18.6934C7.26667 19.4667 7.52 20.2001 8.04 20.7734C8.56 21.3467 9.28 21.6534 10.0533 21.6534H24.2533C25.64 21.6534 26.8933 20.4801 27 19.0934L27.72 9.09342C27.7733 8.30676 27.52 7.56009 27 7.01343C26.48 6.45343 25.76 6.14673 24.9733 6.14673H8.37334V6.16008Z" fill="#3A3A3A"/>
<path d="M21.6667 30.3333C20.2 30.3333 19 29.1333 19 27.6667C19 26.2 20.2 25 21.6667 25C23.1333 25 24.3333 26.2 24.3333 27.6667C24.3333 29.1333 23.1333 30.3333 21.6667 30.3333ZM21.6667 27C21.2933 27 21 27.2933 21 27.6667C21 28.04 21.2933 28.3333 21.6667 28.3333C22.04 28.3333 22.3333 28.04 22.3333 27.6667C22.3333 27.2933 22.04 27 21.6667 27Z" fill="#3A3A3A"/>
<path d="M11 30.3333C9.53334 30.3333 8.33334 29.1333 8.33334 27.6667C8.33334 26.2 9.53334 25 11 25C12.4667 25 13.6667 26.2 13.6667 27.6667C13.6667 29.1333 12.4667 30.3333 11 30.3333ZM11 27C10.6267 27 10.3333 27.2933 10.3333 27.6667C10.3333 28.04 10.6267 28.3333 11 28.3333C11.3733 28.3333 11.6667 28.04 11.6667 27.6667C11.6667 27.2933 11.3733 27 11 27Z" fill="#3A3A3A"/>
<path d="M28 11.6667H12C11.4533 11.6667 11 11.2134 11 10.6667C11 10.1201 11.4533 9.66675 12 9.66675H28C28.5467 9.66675 29 10.1201 29 10.6667C29 11.2134 28.5467 11.6667 28 11.6667Z" fill="#3A3A3A"/>
</svg>
